<svg width="17" height="24" viewBox="0 0 17 24" fill="none" xmlns="http://www.w3.org/2000/svg">
<path d="M8.48971 6.87113C8.76922 5.59028 8.90938 1.00592 2.70857 0.855469C2.43067 2.13713 2.28971 6.71907 8.48971 6.87113ZM8.56623 23.3452C7.17512 23.3452 6.07721 23.9502 5.0518 23.6075C3.03722 22.9341 0.780991 19.0988 0.420124 15.2852C0.0955036 11.8417 1.42781 9.63799 3.08636 8.7039C5.24109 7.48903 6.95521 8.36599 8.56623 8.36599C10.1748 8.36599 11.9478 7.48983 14.1009 8.7039C15.7602 9.63799 17.0917 11.8417 16.7671 15.2852C16.4071 19.0988 14.15 22.9349 12.1354 23.6075C11.1108 23.9502 9.95734 23.3452 8.56623 23.3452Z" fill="#424242"/>
</svg>
