<svg width="30" height="6" viewBox="0 0 30 6" fill="none" xmlns="http://www.w3.org/2000/svg">
<path fill-rule="evenodd" clip-rule="evenodd" d="M8.8724 5.79045V1.76022C8.8724 0.616972 8.26303 0.0742188 7.23974 0.0742188C6.38892 0.0742188 5.65308 0.582328 5.33115 1.09044C5.12419 0.455301 4.6068 0.0742188 3.79048 0.0742188C2.93966 0.0742188 2.20381 0.605424 1.97386 0.940314V0.212794H0.513672V5.79045H1.97386V2.03737C2.19232 1.72557 2.61773 1.37914 3.12362 1.37914C3.72149 1.37914 3.95144 1.74867 3.95144 2.26833V5.79045H5.42313V2.02582C5.63009 1.72557 6.05549 1.37914 6.57289 1.37914C7.17076 1.37914 7.40071 1.74867 7.40071 2.26833V5.79045H8.8724ZM12.885 5.92902C11.0569 5.92902 9.95317 4.58946 9.95317 2.99585C9.95317 1.41378 11.0569 0.0742188 12.885 0.0742188C14.7247 0.0742188 15.8284 1.41378 15.8284 2.99585C15.8284 4.58946 14.7247 5.92902 12.885 5.92902ZM12.885 4.62411C13.7934 4.62411 14.3107 3.87349 14.3107 2.99585C14.3107 2.12975 13.7934 1.37914 12.885 1.37914C11.9767 1.37914 11.4708 2.12975 11.4708 2.99585C11.4708 3.87349 11.9767 4.62411 12.885 4.62411ZM22.1176 5.79045V1.8526C22.1176 0.767095 21.5312 0.0742188 20.3125 0.0742188C19.4042 0.0742188 18.7258 0.513041 18.3694 0.940314V0.212794H16.9092V5.79045H18.3694V2.03737C18.6108 1.70248 19.0592 1.37914 19.6341 1.37914C20.255 1.37914 20.6574 1.64474 20.6574 2.41845V5.79045H22.1176ZM26.1417 5.92902C24.3136 5.92902 23.2099 4.58946 23.2099 2.99585C23.2099 1.41378 24.3136 0.0742188 26.1417 0.0742188C27.9813 0.0742188 29.0851 1.41378 29.0851 2.99585C29.0851 4.58946 27.9813 5.92902 26.1417 5.92902ZM26.1417 4.62411C27.05 4.62411 27.5674 3.87349 27.5674 2.99585C27.5674 2.12975 27.05 1.37914 26.1417 1.37914C25.2334 1.37914 24.7275 2.12975 24.7275 2.99585C24.7275 3.87349 25.2334 4.62411 26.1417 4.62411Z" fill="#424242"/>
</svg>
