<svg width="386" height="343" viewBox="0 0 386 343" fill="none" xmlns="http://www.w3.org/2000/svg">
<rect width="21.4172" height="21.4172" transform="matrix(-1 0 0 1 257.496 0)" fill="#E1E5D8"/>
<rect width="21.4172" height="21.4172" transform="matrix(-1 0 0 1 236.078 0)" fill="#D2CEC2"/>
<rect width="21.4172" height="21.4172" transform="matrix(-1 0 0 1 214.661 0.000488281)" fill="#D5D0C0"/>
<rect width="21.4172" height="21.4172" transform="matrix(-1 0 0 1 193.244 0.000732422)" fill="#CAC1B1"/>
<rect width="21.4172" height="21.4172" transform="matrix(-1 0 0 1 171.827 0.000976562)" fill="#A28574"/>
<rect width="21.4172" height="21.4172" transform="matrix(-1 0 0 1 278.913 21.417)" fill="#E5E8DF"/>
<rect width="21.4172" height="21.4172" transform="matrix(-1 0 0 1 257.496 21.4172)" fill="#DFE2DB"/>
<rect width="21.4172" height="21.4172" transform="matrix(-1 0 0 1 236.079 21.4175)" fill="#DDDFD4"/>
<rect width="21.4172" height="21.4172" transform="matrix(-1 0 0 1 214.661 21.4175)" fill="#DFD8CF"/>
<rect width="21.4172" height="21.4172" transform="matrix(-1 0 0 1 193.244 21.418)" fill="#B29483"/>
<rect width="21.4172" height="21.4172" transform="matrix(-1 0 0 1 171.827 21.4182)" fill="#CBA48A"/>
<rect width="21.4172" height="21.4172" transform="matrix(-1 0 0 1 150.41 21.4185)" fill="#B68E75"/>
<rect width="21.4172" height="21.4172" transform="matrix(-1 0 0 1 300.331 42.8359)" fill="#E6E2AA"/>
<rect width="21.4172" height="21.4172" transform="matrix(-1 0 0 1 278.913 42.834)" fill="#E7D16C"/>
<rect width="21.4172" height="21.4172" transform="matrix(-1 0 0 1 257.496 42.8345)" fill="#DDCEBF"/>
<rect width="21.4172" height="21.4172" transform="matrix(-1 0 0 1 236.079 42.8347)" fill="#928177"/>
<rect width="21.4172" height="21.4172" transform="matrix(-1 0 0 1 214.662 42.835)" fill="#131102"/>
<rect width="21.4172" height="21.4172" transform="matrix(-1 0 0 1 193.244 42.835)" fill="#3E1F00"/>
<rect width="21.4172" height="21.4172" transform="matrix(-1 0 0 1 171.827 42.8354)" fill="#BFB9B2"/>
<rect width="21.4172" height="21.4172" transform="matrix(-1 0 0 1 150.41 42.8354)" fill="#CEC2BA"/>
<rect width="21.4172" height="21.4172" transform="matrix(-1 0 0 1 128.993 42.8359)" fill="#9E8378"/>
<rect width="21.4172" height="21.4172" transform="matrix(-1 0 0 1 321.749 64.2529)" fill="#FDF9CB"/>
<rect width="21.4172" height="21.4172" transform="matrix(-1 0 0 1 300.331 64.2529)" fill="#F8BC2F"/>
<rect width="21.4172" height="21.4172" transform="matrix(-1 0 0 1 278.914 64.2515)" fill="#F3D867"/>
<rect width="21.4172" height="21.4172" transform="matrix(-1 0 0 1 257.496 64.2515)" fill="#D7D7CD"/>
<rect width="21.4172" height="21.4172" transform="matrix(-1 0 0 1 236.079 64.252)" fill="#CAC6BB"/>
<rect width="21.4172" height="21.4172" transform="matrix(-1 0 0 1 214.662 64.2522)" fill="#EBECE4"/>
<rect width="21.4172" height="21.4172" transform="matrix(-1 0 0 1 193.243 64.2529)" fill="#E2D8CE"/>
<rect width="21.4172" height="21.4172" transform="matrix(-1 0 0 1 171.827 64.2524)" fill="#D7D1C3"/>
<rect width="21.4172" height="21.4172" transform="matrix(-1 0 0 1 150.41 64.2527)" fill="#DAD4CD"/>
<rect width="21.4172" height="21.4172" transform="matrix(-1 0 0 1 128.993 64.2529)" fill="#BCABA3"/>
<rect width="21.4172" height="21.4172" transform="matrix(-1 0 0 1 107.576 64.2534)" fill="#B29585"/>
<rect width="21.4172" height="21.4172" transform="matrix(-1 0 0 1 321.747 85.6707)" fill="#FFF5C0"/>
<rect width="21.4172" height="21.4172" transform="matrix(-1 0 0 1 300.33 85.6709)" fill="#F6B73C"/>
<rect width="21.4172" height="21.4172" transform="matrix(-1 0 0 1 278.912 85.6692)" fill="#EAB93A"/>
<rect width="21.4172" height="21.4172" transform="matrix(-1 0 0 1 257.497 85.6689)" fill="#AD8C3B"/>
<rect width="21.4172" height="21.4172" transform="matrix(-1 0 0 1 236.079 85.6689)" fill="#D8CCB4"/>
<rect width="21.4172" height="21.4172" transform="matrix(-1 0 0 1 214.662 85.6694)" fill="#E2CFBA"/>
<rect width="21.4172" height="21.4172" transform="matrix(-1 0 0 1 193.245 85.6694)" fill="#DFE0D3"/>
<rect width="21.4172" height="21.4172" transform="matrix(-1 0 0 1 171.828 85.6699)" fill="#DDD8CC"/>
<rect width="21.4172" height="21.4172" transform="matrix(-1 0 0 1 150.41 85.6699)" fill="#D5CABE"/>
<rect width="21.4172" height="21.4172" transform="matrix(-1 0 0 1 128.993 85.6702)" fill="#CAAF9C"/>
<rect width="21.4172" height="21.4172" transform="matrix(-1 0 0 1 107.575 85.6685)" fill="#B59888"/>
<rect width="21.4172" height="21.4172" transform="matrix(-1 0 0 1 321.747 107.088)" fill="#FFF5B6"/>
<rect width="21.4172" height="21.4172" transform="matrix(-1 0 0 1 300.33 107.088)" fill="#E0B860"/>
<rect width="21.4172" height="21.4172" transform="matrix(-1 0 0 1 278.912 107.086)" fill="#D5C099"/>
<rect width="21.4172" height="21.4172" transform="matrix(-1 0 0 1 257.495 107.087)" fill="#C9BCB3"/>
<rect width="21.4172" height="21.4172" transform="matrix(-1 0 0 1 236.078 107.087)" fill="#D1C7BE"/>
<rect width="21.4172" height="21.4172" transform="matrix(-1 0 0 1 214.66 107.087)" fill="#D8D5CC"/>
<rect width="21.4172" height="21.4172" transform="matrix(-1 0 0 1 193.243 107.087)" fill="#E0DDD4"/>
<rect width="21.4172" height="21.4172" transform="matrix(-1 0 0 1 171.826 107.087)" fill="#DCD9D0"/>
<rect width="21.4172" height="21.4172" transform="matrix(-1 0 0 1 150.409 107.088)" fill="#D9C8BC"/>
<rect width="21.4172" height="21.4172" transform="matrix(-1 0 0 1 128.991 107.088)" fill="#D7C9BC"/>
<rect width="21.4172" height="21.4172" transform="matrix(-1 0 0 1 107.575 107.086)" fill="#BEA494"/>
<rect width="21.4172" height="21.4172" transform="matrix(-1 0 0 1 86.1572 107.086)" fill="#2F2218"/>
<rect width="21.4172" height="21.4172" transform="matrix(-1 0 0 1 321.747 128.505)" fill="#FFFCDC"/>
<rect width="21.4172" height="21.4172" transform="matrix(-1 0 0 1 257.495 128.504)" fill="#E0E3D9"/>
<rect width="21.4172" height="21.4172" transform="matrix(-1 0 0 1 236.078 128.504)" fill="#CACBC3"/>
<rect width="21.4172" height="21.4172" transform="matrix(-1 0 0 1 214.661 128.504)" fill="#DADAD0"/>
<rect width="21.4172" height="21.4172" transform="matrix(-1 0 0 1 193.243 128.504)" fill="#D5D5CB"/>
<rect width="21.4172" height="21.4172" transform="matrix(-1 0 0 1 171.826 128.505)" fill="#E0E0D6"/>
<rect width="21.4172" height="21.4172" transform="matrix(-1 0 0 1 150.409 128.505)" fill="#E0DBD0"/>
<rect width="21.4172" height="21.4172" transform="matrix(-1 0 0 1 128.994 128.505)" fill="#E4E0D5"/>
<rect width="21.4172" height="21.4172" transform="matrix(-1 0 0 1 107.576 128.503)" fill="#D1C6BD"/>
<rect width="21.4172" height="21.4172" transform="matrix(-1 0 0 1 86.1592 128.503)" fill="#C5AA99"/>
<rect width="21.4172" height="21.4172" transform="matrix(-1 0 0 1 257.495 149.921)" fill="#E1E3DE"/>
<rect width="21.4172" height="21.4172" transform="matrix(-1 0 0 1 236.078 149.921)" fill="#D7D8D3"/>
<rect width="21.4172" height="21.4172" transform="matrix(-1 0 0 1 214.661 149.921)" fill="#DBDCD5"/>
<rect width="21.4172" height="21.4172" transform="matrix(-1 0 0 1 193.244 149.922)" fill="#D7D7CF"/>
<rect width="21.4172" height="21.4172" transform="matrix(-1 0 0 1 171.826 149.922)" fill="#DDDBCF"/>
<rect width="21.4172" height="21.4172" transform="matrix(-1 0 0 1 150.409 149.922)" fill="#E6E2D7"/>
<rect width="21.4172" height="21.4172" transform="matrix(-1 0 0 1 128.992 149.922)" fill="#E1D9CE"/>
<rect width="21.4172" height="21.4172" transform="matrix(-1 0 0 1 107.574 149.921)" fill="#D5C5B6"/>
<rect width="21.4172" height="21.4172" transform="matrix(-1 0 0 1 86.1572 149.921)" fill="#C5ADA0"/>
<rect width="21.4172" height="21.4172" transform="matrix(-1 0 0 1 278.913 171.338)" fill="#EBECE4"/>
<rect width="21.4172" height="21.4172" transform="matrix(-1 0 0 1 257.496 171.338)" fill="#E2E2E0"/>
<rect width="21.4172" height="21.4172" transform="matrix(-1 0 0 1 236.078 171.338)" fill="#DEE0DB"/>
<rect width="21.4172" height="21.4172" transform="matrix(-1 0 0 1 214.662 171.338)" fill="#D6D8D3"/>
<rect width="21.4172" height="21.4172" transform="matrix(-1 0 0 1 193.245 171.339)" fill="#DEDFD9"/>
<rect width="21.4172" height="21.4172" transform="matrix(-1 0 0 1 171.828 171.339)" fill="#E0DED1"/>
<rect width="21.4172" height="21.4172" transform="matrix(-1 0 0 1 150.41 171.339)" fill="#DAD8CA"/>
<rect width="21.4172" height="21.4172" transform="matrix(-1 0 0 1 128.993 171.339)" fill="#E1DCCE"/>
<rect width="21.4172" height="21.4172" transform="matrix(-1 0 0 1 107.575 171.338)" fill="#DBCBBC"/>
<rect width="21.4172" height="21.4172" transform="matrix(-1 0 0 1 86.1582 171.338)" fill="#CEBFB4"/>
<rect width="21.4172" height="21.4172" transform="matrix(-1 0 0 1 278.913 192.755)" fill="#E2E4E1"/>
<rect width="21.4172" height="21.4172" transform="matrix(-1 0 0 1 257.496 192.755)" fill="#E0E0DE"/>
<rect width="21.4172" height="21.4172" transform="matrix(-1 0 0 1 236.079 192.756)" fill="#DBDBD9"/>
<rect width="21.4172" height="21.4172" transform="matrix(-1 0 0 1 214.661 192.756)" fill="#D1D2CE"/>
<rect width="21.4172" height="21.4172" transform="matrix(-1 0 0 1 193.245 192.756)" fill="#D8D9D3"/>
<rect width="21.4172" height="21.4172" transform="matrix(-1 0 0 1 171.827 192.756)" fill="#D0CFCA"/>
<rect width="21.4172" height="21.4172" transform="matrix(-1 0 0 1 150.411 192.756)" fill="#DFDDCF"/>
<rect width="21.4172" height="21.4172" transform="matrix(-1 0 0 1 128.992 192.757)" fill="#E6E1D3"/>
<rect width="21.4172" height="21.4172" transform="matrix(-1 0 0 1 107.575 192.755)" fill="#C2B2A1"/>
<rect width="21.4172" height="21.4172" transform="matrix(-1 0 0 1 86.1582 192.755)" fill="#D3C5B9"/>
<rect width="21.4172" height="21.4172" transform="matrix(-1 0 0 1 64.7402 192.756)" fill="#160C0A"/>
<rect width="21.4172" height="21.4172" transform="matrix(-1 0 0 1 300.33 214.172)" fill="#DCDDD7"/>
<rect width="21.4172" height="21.4172" transform="matrix(-1 0 0 1 278.913 214.172)" fill="#E4E2DE"/>
<rect width="21.4172" height="21.4172" transform="matrix(-1 0 0 1 257.496 214.172)" fill="#DBDCD6"/>
<rect width="21.4172" height="21.4172" transform="matrix(-1 0 0 1 236.079 214.172)" fill="#DEE1DA"/>
<rect width="21.4172" height="21.4172" transform="matrix(-1 0 0 1 214.661 214.172)" fill="#DFDDD9"/>
<rect width="21.4172" height="21.4172" transform="matrix(-1 0 0 1 193.245 214.173)" fill="#D2D3CD"/>
<rect width="21.4172" height="21.4172" transform="matrix(-1 0 0 1 171.828 214.173)" fill="#979694"/>
<rect width="21.4172" height="21.4172" transform="matrix(-1 0 0 1 150.411 214.174)" fill="#DFDED4"/>
<rect width="21.4172" height="21.4172" transform="matrix(-1 0 0 1 128.994 214.174)" fill="#E7E3D8"/>
<rect width="21.4172" height="21.4172" transform="matrix(-1 0 0 1 107.575 214.172)" fill="#DCDDD5"/>
<rect width="21.4172" height="21.4172" transform="matrix(-1 0 0 1 86.1582 214.172)" fill="#DED5CE"/>
<rect width="21.4172" height="21.4172" transform="matrix(-1 0 0 1 64.7402 214.173)" fill="#C1ADAB"/>
<rect width="21.4172" height="21.4172" transform="matrix(-1 0 0 1 321.748 235.59)" fill="#ACA29A"/>
<rect width="21.4172" height="21.4172" transform="matrix(-1 0 0 1 300.329 235.589)" fill="#51453E"/>
<rect width="21.4172" height="21.4172" transform="matrix(-1 0 0 1 278.913 235.589)" fill="#52403A"/>
<rect width="21.4172" height="21.4172" transform="matrix(-1 0 0 1 257.496 235.589)" fill="#2F251D"/>
<rect width="21.4172" height="21.4172" transform="matrix(-1 0 0 1 236.079 235.59)" fill="#765647"/>
<rect width="21.4172" height="21.4172" transform="matrix(-1 0 0 1 214.662 235.59)" fill="#7F5E4C"/>
<rect width="21.4172" height="21.4172" transform="matrix(-1 0 0 1 193.244 235.59)" fill="#45362F"/>
<rect width="21.4172" height="21.4172" transform="matrix(-1 0 0 1 171.827 235.59)" fill="#29231E"/>
<rect width="21.4172" height="21.4172" transform="matrix(-1 0 0 1 150.41 235.591)" fill="#4A4440"/>
<rect width="21.4172" height="21.4172" transform="matrix(-1 0 0 1 128.993 235.591)" fill="#E7E7DC"/>
<rect width="21.4172" height="21.4172" transform="matrix(-1 0 0 1 107.576 235.589)" fill="#E1DED6"/>
<rect width="21.4172" height="21.4172" transform="matrix(-1 0 0 1 86.1582 235.59)" fill="#CEC7C6"/>
<rect width="21.4172" height="21.4172" transform="matrix(-1 0 0 1 64.7412 235.59)" fill="#7E6F62"/>
<rect width="21.4172" height="21.4172" transform="matrix(-1 0 0 1 43.3232 235.59)" fill="#190804"/>
<rect width="21.4172" height="21.4172" transform="matrix(-1 0 0 1 364.583 257.007)" fill="#C6A175"/>
<rect width="21.4172" height="21.4172" transform="matrix(-1 0 0 1 343.166 257.008)" fill="#4E3527"/>
<rect width="21.4172" height="21.4172" transform="matrix(-1 0 0 1 321.749 257.008)" fill="#D1C8B8"/>
<rect width="21.4172" height="21.4172" transform="matrix(-1 0 0 1 300.331 257.006)" fill="#75665B"/>
<rect width="21.4172" height="21.4172" transform="matrix(-1 0 0 1 278.914 257.006)" fill="#5E4332"/>
<rect width="21.4172" height="21.4172" transform="matrix(-1 0 0 1 257.496 257.006)" fill="#5B3E2A"/>
<rect width="21.4172" height="21.4172" transform="matrix(-1 0 0 1 236.079 257.007)" fill="#48311F"/>
<rect width="21.4172" height="21.4172" transform="matrix(-1 0 0 1 214.662 257.007)" fill="#613E25"/>
<rect width="21.4172" height="21.4172" transform="matrix(-1 0 0 1 193.245 257.007)" fill="#925E38"/>
<rect width="21.4172" height="21.4172" transform="matrix(-1 0 0 1 171.827 257.007)" fill="#684C36"/>
<rect width="21.4172" height="21.4172" transform="matrix(-1 0 0 1 150.41 257.008)" fill="#120B09"/>
<rect width="21.4172" height="21.4172" transform="matrix(-1 0 0 1 128.992 257.006)" fill="#100B08"/>
<rect width="21.4172" height="21.4172" transform="matrix(-1 0 0 1 107.575 257.006)" fill="#241F19"/>
<rect width="21.4172" height="21.4172" transform="matrix(-1 0 0 1 86.1592 257.006)" fill="#E2D8E0"/>
<rect width="21.4172" height="21.4172" transform="matrix(-1 0 0 1 64.7412 257.007)" fill="#1A0A05"/>
<rect width="21.4172" height="21.4172" transform="matrix(-1 0 0 1 43.3242 257.007)" fill="#251309"/>
<rect width="21.4172" height="21.4172" transform="matrix(-1 0 0 1 21.9062 257.007)" fill="#240E08"/>
<rect width="21.4172" height="21.4172" transform="matrix(-1 0 0 1 385.999 278.425)" fill="#F2B87F"/>
<rect width="21.4172" height="21.4172" transform="matrix(-1 0 0 1 364.581 278.425)" fill="#54301B"/>
<rect width="21.4172" height="21.4172" transform="matrix(-1 0 0 1 343.164 278.425)" fill="#986A47"/>
<rect width="21.4172" height="21.4172" transform="matrix(-1 0 0 1 321.747 278.426)" fill="#040000"/>
<rect width="21.4172" height="21.4172" transform="matrix(-1 0 0 1 300.329 278.424)" fill="#4F372D"/>
<rect width="21.4172" height="21.4172" transform="matrix(-1 0 0 1 278.912 278.424)" fill="#976F5D"/>
<rect width="21.4172" height="21.4172" transform="matrix(-1 0 0 1 257.495 278.424)" fill="#3F2514"/>
<rect width="21.4172" height="21.4172" transform="matrix(-1 0 0 1 236.077 278.424)" fill="#93684F"/>
<rect width="21.4172" height="21.4172" transform="matrix(-1 0 0 1 214.66 278.425)" fill="#673D25"/>
<rect width="21.4172" height="21.4172" transform="matrix(-1 0 0 1 193.243 278.425)" fill="#54311C"/>
<rect width="21.4172" height="21.4172" transform="matrix(-1 0 0 1 171.826 278.425)" fill="#6F5640"/>
<rect width="21.4172" height="21.4172" transform="matrix(-1 0 0 1 150.41 278.425)" fill="#2F180A"/>
<rect width="21.4172" height="21.4172" transform="matrix(-1 0 0 1 128.993 278.423)" fill="#261710"/>
<rect width="21.4172" height="21.4172" transform="matrix(-1 0 0 1 107.575 278.423)" fill="#1A0C0B"/>
<rect width="21.4172" height="21.4172" transform="matrix(-1 0 0 1 86.1582 278.424)" fill="#120501"/>
<rect width="21.4172" height="21.4172" transform="matrix(-1 0 0 1 64.7412 278.424)" fill="#0F0301"/>
<rect width="21.4172" height="21.4172" transform="matrix(-1 0 0 1 43.3242 278.424)" fill="#120200"/>
<rect width="21.4172" height="21.4172" transform="matrix(-1 0 0 1 21.9072 278.424)" fill="#160100"/>
<rect width="21.4172" height="21.4172" transform="matrix(-1 0 0 1 385.999 299.842)" fill="#C7AC99"/>
<rect width="21.4172" height="21.4172" transform="matrix(-1 0 0 1 364.582 299.842)" fill="#B68566"/>
<rect width="21.4172" height="21.4172" transform="matrix(-1 0 0 1 343.164 299.842)" fill="#4D3520"/>
<rect width="21.4172" height="21.4172" transform="matrix(-1 0 0 1 321.747 299.843)" fill="#040301"/>
<rect width="21.4172" height="21.4172" transform="matrix(-1 0 0 1 300.329 299.841)" fill="#9D603A"/>
<rect width="21.4172" height="21.4172" transform="matrix(-1 0 0 1 278.912 299.841)" fill="#5F3C29"/>
<rect width="21.4172" height="21.4172" transform="matrix(-1 0 0 1 257.495 299.841)" fill="#482917"/>
<rect width="21.4172" height="21.4172" transform="matrix(-1 0 0 1 236.08 299.841)" fill="#503E30"/>
<rect width="21.4172" height="21.4172" transform="matrix(-1 0 0 1 214.662 299.841)" fill="#4E3323"/>
<rect width="21.4172" height="21.4172" transform="matrix(-1 0 0 1 193.245 299.842)" fill="#7B4A2B"/>
<rect width="21.4172" height="21.4172" transform="matrix(-1 0 0 1 171.828 299.842)" fill="#402515"/>
<rect width="21.4172" height="21.4172" transform="matrix(-1 0 0 1 150.409 299.843)" fill="#160704"/>
<rect width="21.4172" height="21.4172" transform="matrix(-1 0 0 1 128.991 299.841)" fill="#391E0F"/>
<rect width="21.4172" height="21.4172" transform="matrix(-1 0 0 1 107.574 299.841)" fill="#271710"/>
<rect width="21.4172" height="21.4172" transform="matrix(-1 0 0 1 86.1572 299.841)" fill="#25130F"/>
<rect width="21.4172" height="21.4172" transform="matrix(-1 0 0 1 64.7393 299.842)" fill="#210B06"/>
<rect width="21.4172" height="21.4172" transform="matrix(-1 0 0 1 43.3232 299.842)" fill="#170B08"/>
<rect width="21.4172" height="21.4172" transform="matrix(-1 0 0 1 21.9053 299.842)" fill="#4E3531"/>
<rect width="21.4172" height="21.4172" transform="matrix(-1 0 0 1 386 321.259)" fill="#895B33"/>
<rect width="21.4172" height="21.4172" transform="matrix(-1 0 0 1 364.582 321.26)" fill="#A37053"/>
<rect width="21.4172" height="21.4172" transform="matrix(-1 0 0 1 343.165 321.26)" fill="#5C3C2C"/>
<rect width="21.4172" height="21.4172" transform="matrix(-1 0 0 1 321.747 321.258)" fill="#030201"/>
<rect width="21.4172" height="21.4172" transform="matrix(-1 0 0 1 300.33 321.258)" fill="#6C432C"/>
<rect width="21.4172" height="21.4172" transform="matrix(-1 0 0 1 278.912 321.258)" fill="#7E4A29"/>
<rect width="21.4172" height="21.4172" transform="matrix(-1 0 0 1 257.495 321.259)" fill="#8C6F63"/>
<rect width="21.4172" height="21.4172" transform="matrix(-1 0 0 1 236.078 321.259)" fill="#593922"/>
<rect width="21.4172" height="21.4172" transform="matrix(-1 0 0 1 214.661 321.259)" fill="#6E4E39"/>
<rect width="21.4172" height="21.4172" transform="matrix(-1 0 0 1 193.243 321.259)" fill="#724628"/>
<rect width="21.4172" height="21.4172" transform="matrix(-1 0 0 1 171.826 321.26)" fill="#69422A"/>
<rect width="21.4172" height="21.4172" transform="matrix(-1 0 0 1 150.409 321.26)" fill="#1B0601"/>
<rect width="21.4172" height="21.4172" transform="matrix(-1 0 0 1 128.992 321.258)" fill="#3E2312"/>
<rect width="21.4172" height="21.4172" transform="matrix(-1 0 0 1 107.574 321.258)" fill="#2E1109"/>
<rect width="21.4172" height="21.4172" transform="matrix(-1 0 0 1 86.1572 321.259)" fill="#563C2D"/>
<rect width="21.4172" height="21.4172" transform="matrix(-1 0 0 1 64.7402 321.259)" fill="#371C11"/>
<rect width="21.4172" height="21.4172" transform="matrix(-1 0 0 1 43.3223 321.259)" fill="#100400"/>
<rect width="21.4172" height="21.4172" transform="matrix(-1 0 0 1 21.9072 321.259)" fill="#BE9896"/>
</svg>
