<svg width="46" height="44" viewBox="0 0 46 44" fill="none" xmlns="http://www.w3.org/2000/svg">
<path fill-rule="evenodd" clip-rule="evenodd" d="M22.0197 30.5002C23.6695 31.3029 25.7821 31.7043 28.3575 31.7043C30.8525 31.7043 32.8846 31.1825 34.454 30.139C36.0636 29.0956 37.3111 27.7711 38.1963 26.1658L38.9207 30.9818H45.5L45.5 12.6206C45.5 8.72766 44.2727 5.71763 41.818 3.59054C39.3633 1.46345 36.0032 0.399902 31.7377 0.399902C29.2428 0.399902 26.9894 0.841373 24.9773 1.72432C22.9653 2.56713 21.3154 3.7912 20.0278 5.39656C18.7803 7.00191 18.056 8.8882 17.8548 11.0554H25.3999C25.6815 9.6106 26.4059 8.52699 27.5728 7.80458C28.7398 7.04204 30.108 6.66077 31.6774 6.66077C33.4077 6.66077 34.8564 7.14238 36.0234 8.10559C37.1903 9.0688 37.7738 10.5738 37.7738 12.6206V13.343H30.1684C29.8387 13.343 29.5152 13.348 29.198 13.3579L13.6471 13.3579L13.6471 5.29121L6.67235 5.29121L5.7465 13.3579H0.5L0.5 19.8477H5.7465L5.7465 32.9486C5.7465 36.8708 6.7135 39.6001 8.6475 41.1366C10.5815 42.6732 13.1533 43.4414 16.3629 43.4414H21.7329V36.8303H17.906C16.3424 36.8303 15.2313 36.5675 14.573 36.0419C13.9557 35.4758 13.6471 34.4649 13.6471 33.0093L13.6471 19.8477H17.5656C17.2755 20.7202 17.1304 21.6624 17.1304 22.6742C17.1304 24.3196 17.5328 25.8247 18.3377 27.1892C19.1425 28.5538 20.3698 29.6574 22.0197 30.5002ZM35.2387 23.517C34.0315 24.9618 32.3212 25.6842 30.108 25.6842C28.6593 25.6842 27.4924 25.3631 26.6071 24.721C25.7218 24.0788 25.2791 23.1758 25.2791 22.0119C25.2791 20.9283 25.7218 20.0253 26.6071 19.3029C27.4924 18.5404 28.9611 18.1591 31.0134 18.1591L37.5927 18.1591C37.2708 20.2862 36.4861 22.0721 35.2387 23.517Z" fill="white"/>
</svg>
