<svg width="29" height="29" viewBox="0 0 29 29" fill="none" xmlns="http://www.w3.org/2000/svg">
    <path d="M9.00008 5.4665L12.3334 7.33317L10.4667 3.99984L12.3334 0.666504L9.00008 2.53317L5.66675 0.666504L7.53341 3.99984L5.66675 7.33317L9.00008 5.4665ZM25.0001 18.5332L21.6667 16.6665L23.5334 19.9998L21.6667 23.3332L25.0001 21.4665L28.3334 23.3332L26.4667 19.9998L28.3334 16.6665L25.0001 18.5332ZM28.3334 0.666504L25.0001 2.53317L21.6667 0.666504L23.5334 3.99984L21.6667 7.33317L25.0001 5.4665L28.3334 7.33317L26.4667 3.99984L28.3334 0.666504ZM18.1601 7.71984C17.6401 7.19984 16.8001 7.19984 16.2801 7.71984L0.720078 23.2798C0.200078 23.7998 0.200078 24.6398 0.720078 25.1598L3.84008 28.2798C4.36008 28.7998 5.20008 28.7998 5.72008 28.2798L21.2667 12.7332C21.7867 12.2132 21.7867 11.3732 21.2667 10.8532L18.1601 7.71984ZM16.7867 15.0398L13.9601 12.2132L17.2134 8.95984L20.0401 11.7865L16.7867 15.0398Z" fill="white"/>
</svg>
